REM DIRINDEX 1\2\6,1\2\7,1\2\8,1\3\9,1\3\10,1\3\11,1\4\12,1\4\13,1\4\14,1\5\15,1\5\16,1\5\17,1\5\18
REM DIRNAME cjc019,folder01,folder02,folder03,folder04,folder05,folder06,folder07,folder08,folder09,folder10,folder11,folder12,folder13,folder14,folder15,folder16,folder17
TITLE ""
FILE "2Q_j_1390-1403.mp3" MP3
  TRACK 01 AUDIO
    TITLE "6:cjc019_0632"
    INDEX 01 00:00:00
  TRACK 02 AUDIO
    TITLE "0:"
    INDEX 01 00:01:11
  TRACK 03 AUDIO
    TITLE "7:cjc019_0633"
    INDEX 01 00:01:66
  TRACK 04 AUDIO
    TITLE "0:"
    INDEX 01 00:06:14
  TRACK 05 AUDIO
    TITLE "8:cjc019_0634"
    INDEX 01 00:06:63
  TRACK 06 AUDIO
    TITLE "0:"
    INDEX 01 00:10:41
  TRACK 07 AUDIO
    TITLE "6:cjc019_0635"
    INDEX 01 00:11:27
  TRACK 08 AUDIO
    TITLE "0:"
    INDEX 01 00:12:46
  TRACK 09 AUDIO
    TITLE "7:cjc019_0636"
    INDEX 01 00:13:33
  TRACK 10 AUDIO
    TITLE "0:"
    INDEX 01 00:16:71
  TRACK 11 AUDIO
    TITLE "8:cjc019_0637"
    INDEX 01 00:17:53
  TRACK 12 AUDIO
    TITLE "0:"
    INDEX 01 00:19:56
  TRACK 13 AUDIO
    TITLE "6:cjc019_0638"
    INDEX 01 00:20:37
  TRACK 14 AUDIO
    TITLE "0:"
    INDEX 01 00:21:35
  TRACK 15 AUDIO
    TITLE "7:cjc019_0639"
    INDEX 01 00:22:32
  TRACK 16 AUDIO
    TITLE "0:"
    INDEX 01 00:24:41
  TRACK 17 AUDIO
    TITLE "8:cjc019_0640"
    INDEX 01 00:25:23
  TRACK 18 AUDIO
    TITLE "0:"
    INDEX 01 00:29:11
  TRACK 19 AUDIO
    TITLE "6:cjc019_0641"
    INDEX 01 00:29:64
  TRACK 20 AUDIO
    TITLE "0:"
    INDEX 01 00:31:37
  TRACK 21 AUDIO
    TITLE "7:cjc019_0642"
    INDEX 01 00:32:15
  TRACK 22 AUDIO
    TITLE "0:"
    INDEX 01 00:33:50
  TRACK 23 AUDIO
    TITLE "8:cjc019_0643"
    INDEX 01 00:34:30
  TRACK 24 AUDIO
    TITLE "0:"
    INDEX 01 00:36:68
  TRACK 25 AUDIO
    TITLE "6:cjc019_0644"
    INDEX 01 00:37:52
  TRACK 26 AUDIO
    TITLE "0:"
    INDEX 01 00:38:67
  TRACK 27 AUDIO
    TITLE "7:cjc019_0645"
    INDEX 01 00:39:47
  TRACK 28 AUDIO
    TITLE "0:"
    INDEX 01 00:44:20
  TRACK 29 AUDIO
    TITLE "8:cjc019_0646"
    INDEX 01 00:44:63
  TRACK 30 AUDIO
    TITLE "0:"
    INDEX 01 00:47:68
  TRACK 31 AUDIO
    TITLE "6:cjc019_0647"
    INDEX 01 00:48:53
  TRACK 32 AUDIO
    TITLE "0:"
    INDEX 01 00:50:17
  TRACK 33 AUDIO
    TITLE "7:cjc019_0648"
    INDEX 01 00:51:05
  TRACK 34 AUDIO
    TITLE "0:"
    INDEX 01 00:52:65
  TRACK 35 AUDIO
    TITLE "8:cjc019_0649"
    INDEX 01 00:53:51
  TRACK 36 AUDIO
    TITLE "0:"
    INDEX 01 00:55:65
  TRACK 37 AUDIO
    TITLE "6:cjc019_0650"
    INDEX 01 00:56:45
  TRACK 38 AUDIO
    TITLE "0:"
    INDEX 01 00:58:13
  TRACK 39 AUDIO
    TITLE "7:cjc019_0651"
    INDEX 01 00:58:71
  TRACK 40 AUDIO
    TITLE "0:"
    INDEX 01 01:01:52
  TRACK 41 AUDIO
    TITLE "8:cjc019_0652"
    INDEX 01 01:02:30
  TRACK 42 AUDIO
    TITLE "0:"
    INDEX 01 01:04:56
  TRACK 43 AUDIO
    TITLE "6:cjc019_0653"
    INDEX 01 01:05:34
  TRACK 44 AUDIO
    TITLE "0:"
    INDEX 01 01:06:71
  TRACK 45 AUDIO
    TITLE "7:cjc019_0654"
    INDEX 01 01:07:55
  TRACK 46 AUDIO
    TITLE "0:"
    INDEX 01 01:09:71
  TRACK 47 AUDIO
    TITLE "8:cjc019_0655"
    INDEX 01 01:10:51
  TRACK 48 AUDIO
    TITLE "0:"
    INDEX 01 01:13:20
  TRACK 49 AUDIO
    TITLE "6:cjc019_0656"
    INDEX 01 01:13:73
  TRACK 50 AUDIO
    TITLE "0:"
    INDEX 01 01:15:62
  TRACK 51 AUDIO
    TITLE "7:cjc019_0657"
    INDEX 01 01:16:44
  TRACK 52 AUDIO
    TITLE "0:"
    INDEX 01 01:19:40
  TRACK 53 AUDIO
    TITLE "8:cjc019_0658"
    INDEX 01 01:20:18
  TRACK 54 AUDIO
    TITLE "0:"
    INDEX 01 01:23:50
  TRACK 55 AUDIO
    TITLE "6:cjc019_0659"
    INDEX 01 01:24:26
  TRACK 56 AUDIO
    TITLE "0:"
    INDEX 01 01:25:57
  TRACK 57 AUDIO
    TITLE "7:cjc019_0660"
    INDEX 01 01:26:42
  TRACK 58 AUDIO
    TITLE "0:"
    INDEX 01 01:28:59
  TRACK 59 AUDIO
    TITLE "8:cjc019_0661"
    INDEX 01 01:29:43
  TRACK 60 AUDIO
    TITLE "0:"
    INDEX 01 01:33:23
  TRACK 61 AUDIO
    TITLE "6:cjc019_0662"
    INDEX 01 01:34:05
  TRACK 62 AUDIO
    TITLE "0:"
    INDEX 01 01:35:67
  TRACK 63 AUDIO
    TITLE "7:cjc019_0663"
    INDEX 01 01:36:47
  TRACK 64 AUDIO
    TITLE "0:"
    INDEX 01 01:38:65
  TRACK 65 AUDIO
    TITLE "8:cjc019_0664"
    INDEX 01 01:39:43
  TRACK 66 AUDIO
    TITLE "0:"
    INDEX 01 01:44:56
  TRACK 67 AUDIO
    TITLE "6:cjc019_0665"
    INDEX 01 01:45:38
  TRACK 68 AUDIO
    TITLE "0:"
    INDEX 01 01:46:70
  TRACK 69 AUDIO
    TITLE "7:cjc019_0666"
    INDEX 01 01:47:54
  TRACK 70 AUDIO
    TITLE "0:"
    INDEX 01 01:50:06
  TRACK 71 AUDIO
    TITLE "8:cjc019_0667"
    INDEX 01 01:50:53
  TRACK 72 AUDIO
    TITLE "0:"
    INDEX 01 01:53:16
  TRACK 73 AUDIO
    TITLE "6:cjc019_0668"
    INDEX 01 01:53:74
  TRACK 74 AUDIO
    TITLE "0:"
    INDEX 01 01:55:32
  TRACK 75 AUDIO
    TITLE "7:cjc019_0669"
    INDEX 01 01:56:12
  TRACK 76 AUDIO
    TITLE "0:"
    INDEX 01 01:58:07
  TRACK 77 AUDIO
    TITLE "8:cjc019_0670"
    INDEX 01 01:58:68
  TRACK 78 AUDIO
    TITLE "0:"
    INDEX 01 02:04:02
  TRACK 79 AUDIO
    TITLE "6:cjc019_0671"
    INDEX 01 02:04:55
  TRACK 80 AUDIO
    TITLE "0:"
    INDEX 01 02:06:10
  TRACK 81 AUDIO
    TITLE "7:cjc019_0672"
    INDEX 01 02:06:73
  TRACK 82 AUDIO
    TITLE "0:"
    INDEX 01 02:10:16
  TRACK 83 AUDIO
    TITLE "8:cjc019_0673"
    INDEX 01 02:10:73
  TRACK 84 AUDIO
    TITLE "0:"
    INDEX 01 02:14:14
